# xmcd
# 
# Track frame offsets:
#     150
#     15172
#     29371
#     42332
#     52851
#     63228
#     77012
#     93474
#     103846
#     119284
#     130579
#     143252
#     155674
#     168226
# 
# Disc length: 2433
# 
# Revision: 4
# Processed by: cddbd v1.5.2PL0 Copyright (c) Steve Scherf et al.
# Submitted via: BonkEnc v1.0.6
# 
DISCID=a2097f0e
DTITLE=Edson and Hudson - Na Moda do Brasil (Ao Vivo)
DYEAR=2007
DGENRE=Sertanejo
TTITLE0=viva a vida!
TTITLE1=as andorinhas
TTITLE2=bicho bom é mulher
TTITLE3=do mundo nada se leva
TTITLE4=o doutor e a empregada
TTITLE5=viola está chorando
TTITLE6=vá pro inferno com seu amor - galopeira
TTITLE7=quebradas da noite
TTITLE8=blusa vermelha
TTITLE9=estrada da vida
TTITLE10=ainda ontem chorei de saudade
TTITLE11=saudade de minha terra
TTITLE12=bobeou... a gente pimba
TTITLE13=hoje eu não posso ir
EXTD=YEAR: 2007
EXTT0=
EXTT1=
EXTT2=
EXTT3=
EXTT4=
EXTT5=
EXTT6=
EXTT7=
EXTT8=
EXTT9=
EXTT10=
EXTT11=
EXTT12=
EXTT13=
PLAYORDER=
